<?xml version="1.0" standalone="no"?><!DOCTYPE svg PUBLIC "-//W3C//DTD SVG 1.1//EN" "http://www.w3.org/Graphics/SVG/1.1/DTD/svg11.dtd"><svg t="1780023234636" class="icon" viewBox="0 0 2578 1024" version="1.1" xmlns="http://www.w3.org/2000/svg" p-id="5983" xmlns:xlink="http://www.w3.org/1999/xlink" width="120.84375" height="48"><path d="M1219.587728 500.347418V800.410717h-95.268477V59.217643h252.537075c60.919979-1.29617 119.787688 21.818858 163.533418 64.160403 44.2858 39.85722 69.237068 96.888689 68.26494 156.404484 1.29617 59.947851-23.655098 117.411377-68.26494 157.376612-44.177786 42.125517-98.72493 63.188276-163.533418 63.080262l-157.268598 0.108014z m0-349.857821v258.801895h159.644909c35.42864 1.080141 69.56111-12.853683 94.188336-38.345022 50.01055-48.606366 51.198705-128.644849 2.484325-178.655398-0.864113-0.864113-1.620212-1.728226-2.484325-2.484326-24.303183-26.031409-58.651682-40.289277-94.188336-39.317149h-159.644909z m608.551702 126.268537c70.425224 0 125.944495 18.794461 166.665828 56.383385 40.721333 37.588923 61.027993 89.219685 61.027993 154.676258V800.410717H1964.777325v-70.425224h-4.104537c-39.425163 58.003597-91.920039 86.951388-157.376612 86.951388-55.843314 0-102.613439-16.526164-140.202362-49.686507-36.508782-30.784032-57.247498-76.366002-56.383385-124.216269 0-52.494875 19.874603-94.188336 59.515795-125.188396 39.641192-31.00006 92.568124-46.554097 158.88881-46.554097 56.491399 0 103.15351 10.369358 139.662291 31.00006v-21.818857c0.216028-32.620272-14.257867-63.512318-39.317149-84.251035-25.167296-22.682971-58.003597-35.104598-91.920039-34.672541-53.14296 0-95.268477 22.466942-126.268537 67.292814l-83.818978-52.818918c46.014026-66.212672 114.278967-99.265001 204.686808-99.265001z m-123.244141 368.436254c-0.108014 24.627225 11.665528 47.742253 31.54013 62.108134 21.062759 16.526164 47.202182 25.383324 73.989691 24.843254 40.181263-0.108014 78.742313-16.094108 107.150033-44.501828 31.540131-29.70389 47.310196-64.484445 47.310196-104.557694-29.70389-23.655098-71.073308-35.536654-124.216268-35.536654-38.669064 0-70.965294 9.289217-96.780675 27.975664-26.031409 19.01049-38.993107 42.017503-38.993107 69.669124z m873.726431-351.910089L2260.736087 1024h-98.292874l117.951448-255.669485-209.115387-475.046216h103.477552l151.111791 364.331716h2.052269l147.007253-364.331716h103.693581z" fill="#5F6368" p-id="5984"></path><path d="M834.733324 435.53893c0-29.055805-2.376311-58.003597-7.344962-86.627346H425.791766v163.965475h229.962118c-9.505245 52.926932-40.181263 99.697057-85.007134 129.400947v106.501949h137.28598c80.362525-73.98969 126.700594-183.624049 126.700594-313.241025z" fill="#4285F4" p-id="5985"></path><path d="M425.791766 851.717436c114.927052 0 211.707727-37.696937 282.240964-102.829467l-137.28598-106.501949c-38.237008 25.923395-87.383445 40.721333-144.954984 40.721334-111.038543 0-205.334893-74.853804-239.035307-175.739017H45.365942v109.742373c72.261464 143.874843 219.484746 234.606726 380.425824 234.606726z" fill="#34A853" p-id="5986"></path><path d="M186.756459 507.368337c-17.822334-52.818918-17.822334-110.174429 0-162.993347V234.632617H45.365942c-60.487922 120.327759-60.487922 262.150334 0 382.478093l141.390517-109.742373z" fill="#FBBC04" p-id="5987"></path><path d="M425.791766 168.635974c60.70395-0.972127 119.355632 21.926872 163.317389 63.83636L710.733084 110.956419C633.610983 38.586941 531.537615-1.162265 425.791766 0.025891 264.850687 0.025891 117.627406 90.865788 45.365942 234.632617l141.390517 109.742373c33.700414-100.885213 127.996764-175.739016 239.035307-175.739016z" fill="#EA4335" p-id="5988"></path></svg>